<?xml version="1.0" encoding="iso-8859-1"?>
<!-- Generator: Adobe Illustrator 18.1.0, SVG Export Plug-In . SVG Version: 6.00 Build 0)  -->
<!DOCTYPE svg PUBLIC "-//W3C//DTD SVG 1.1//EN" "http://www.w3.org/Graphics/SVG/1.1/DTD/svg11.dtd">
<svg version="1.1" id="Layer_1" xmlns="http://www.w3.org/2000/svg" xmlns:xlink="http://www.w3.org/1999/xlink" x="0px" y="0px"
	 width="456.665px" height="152.225px" viewBox="0 0 456.665 152.225" style="enable-background:new 0 0 456.665 152.225;"
	 xml:space="preserve">
<path style="fill-rule:evenodd;clip-rule:evenodd;fill:#ffa300;" d="M424.569,152.224c-13.992,0.064-25.703-5.678-33.288-15.005
	l0.025-0.025c-0.003-0.005-0.011-0.01-0.015-0.016c-1.723-2.628,0.983-7.477,6.038-10.813c5.061-3.337,10.568-3.907,12.292-1.276
	c1.292,1.974,0.095,5.186-2.715,8.08c4.162,3.232,9.317,5.038,15.777,5.008c10.999-0.052,17.75-5.792,17.75-21.144l-0.324-7.006
	c-2.762,3.658-8.227,6.707-19.766,6.395c-15.398-0.407-28.075-12.608-27.899-32.193l-0.191-39.353c0,0,7.121-4.608,16.654-0.076
	l0.046,38.514c-0.067,11.377,5.402,18.051,15.231,18.002c10.669-0.054,15.98-6.104,16.069-18.317l-0.133-38.308h0.017
	c0.131-0.087,7.014-4.552,16.464-0.077h0.009v0.004l0.057,75.657C456.417,142.361,444.236,152.134,424.569,152.224z
	 M327.059,115.583c-7.387,0.038-3.238-5.637-3.238-5.637l32.771-51.002c0.183-0.43,0.133-0.99-1.326-0.982l-29.359,0.135
	c0,0-5.336-7.4,0.516-14.03l52.292,0.064c6.603-0.033,2.118,5.515-0.108,9.259c-1.123,1.905-2.18,3.354-2.18,3.354v0.004
	l-27.891,43.828c-0.457,1.07,0.494,1.314,1.21,1.349l35.531-0.16c0,0,4.77,7.546-0.318,13.86L327.059,115.583z M286.642,116.663
	c-20.164,0.098-36.459-15.045-37.278-35.112c-0.903-22.235,15.46-38.036,36.794-38.136c20.174-0.095,36.447,14.881,37.277,35.278
	C324.347,100.934,308.143,116.568,286.642,116.663z M306.428,78.604c-0.502-12.367-8.35-20.866-20.185-20.808
	c-12.5,0.057-20.425,10.133-19.861,24.013c0.501,12.208,8.512,20.696,20.181,20.639C299.238,102.389,306.99,92.321,306.428,78.604z
	 M237.202,110.807c-6.752,4.695-15.1,7.103-24.787,7.149c-25.076,0.114-43.451-17.286-44.694-42.32
	c-1.304-26.324,17.061-45.524,43.655-45.649c17.671-0.084,27.486,7.612,33.057,14.435l-0.053,0.025
	c1.804,2.425-0.113,7.426-4.436,11.392c-4.47,4.101-9.815,5.544-11.927,3.217c-1.532-1.671-0.959-4.849,1.148-8.032
	c-4.757-3.929-10.696-6.084-17.25-6.05c-16.291,0.073-27.26,12.645-26.369,30.577c0.825,16.596,11.451,27.704,26.143,27.633
	c10.271-0.044,16.142-4.214,20.108-7.839c1.132-1.113,2.133-2.205,2.959-3.229l0.151-0.198l0.261-0.022
	c9.72-0.757,11.891,9.116,11.91,9.208l0.055,0.252l-0.138,0.209C243.919,106.329,237.263,110.766,237.202,110.807z M0,28.473V10.545
	C13.4,4.286,40.347,0,71.465,0s58.062,4.286,71.462,10.545v17.928v114.882H0V28.473z M22.839,82.643
	c-1.195,0-3.431,2.27-4.735,6.362c-1.467,4.618-0.622,7.668,0.226,7.939l19.492,5.844l22.228-7.492L22.854,82.643
	C22.846,82.643,22.844,82.643,22.839,82.643z M63.221,15.417c0.068,6.744-2.472,14.162-7.931,23.737
	c-1.363,2.393-2.774,4.647-4.139,6.824c-6.187,9.885-11.547,18.443-9.596,34.705l24.699,8.409
	c-3.663-5.083-7.523-14.915,1.136-29.031c3.304-5.387,5.947-9.379,8.075-12.585c4.629-6.979,6.449-9.728,6.449-14.026
	C81.915,33.45,77.972,24.517,63.221,15.417z M87.919,41.528c-1.064,2.553-3.016,6.188-6.576,11.118l-1.07,1.462
	c-6.343,8.661-16.897,23.067-4.697,35.367l25.802-8.708c0.283-1.502,0.469-2.929,0.547-4.247
	C102.628,64.384,98.173,55.648,87.919,41.528z M120.91,127.712l0.798,0.228c0.642,0,2.295-1.583,3.302-4.741
	c1.099-3.457,0.438-5.667,0.011-5.8l-20.062-6.824l-20.695,6.148L120.91,127.712z M17.868,123.052
	c0.995,3.159,2.644,4.747,3.284,4.747c0.021,0,0.031,0,0.039-0.005l1.691-0.495l101.759-30.213c0.825-0.266,1.68-3.31,0.226-7.937
	c-1.291-4.114-3.536-6.386-4.596-6.386L17.89,117.242C17.443,117.386,16.78,119.593,17.868,123.052z"/>
<g>
</g>
<g>
</g>
<g>
</g>
<g>
</g>
<g>
</g>
<g>
</g>
</svg>
